<svg xmlns="http://www.w3.org/2000/svg" xmlns:xlink="http://www.w3.org/1999/xlink" width="128" height="128" viewBox="0 0 128 128"><radialGradient id="a" cx="261.688" cy="-1100.566" r="225" gradientTransform="matrix(0.279637 0 0 0.191671 14.08685 250.590637)" gradientUnits="userSpaceOnUse"><stop offset="0" stop-color="#db202e"/><stop offset="1" stop-color="#e01b24"/></radialGradient><radialGradient id="b" cx="231.004" cy="-188.457" r="225" gradientTransform="matrix(0.711792 0.00758015 -0.00379303 0.356174 -134.550674 172.108429)" gradientUnits="userSpaceOnUse"><stop offset="0" stop-color="#ffb648"/><stop offset="1" stop-color="#ff7800" stop-opacity="0"/></radialGradient><radialGradient id="c" cx="18.456" cy="298.331" r="56" gradientTransform="matrix(1.650163 0 0 1.10502 -11.999219 -219.132156)" gradientUnits="userSpaceOnUse"><stop offset="0" stop-color="#c64600"/><stop offset="1" stop-color="#a51d2d"/></radialGradient><path fill="url(#a)" d="m 8 28 v 88 h 8 v -8 h 8 v 8 h 80 v -8 h 8 v 8 h 8 v -88 h -8 v 8 h -8 v -8 h -80 v 8 h -8 v -8 z m 8 16 h 8 v 8 h -8 z m 88 0 h 8 v 8 h -8 z m -88 16 h 8 v 8 h -8 z m 88 0 h 8 v 8 h -8 z m -88 16 h 8 v 8 h -8 z m 88 0 h 8 v 8 h -8 z m -88 16 h 8 v 8 h -8 z m 88 0 h 8 v 8 h -8 z m 0 0"/><path fill="url(#b)" d="m 8 28 v 88 h 8 v -8 h 8 v 8 h 80 v -8 h 8 v 8 h 8 v -88 h -8 v 8 h -8 v -8 h -80 v 8 h -8 v -8 z m 8 16 h 8 v 8 h -8 z m 88 0 h 8 v 8 h -8 z m -88 16 h 8 v 8 h -8 z m 88 0 h 8 v 8 h -8 z m -88 16 h 8 v 8 h -8 z m 88 0 h 8 v 8 h -8 z m -88 16 h 8 v 8 h -8 z m 88 0 h 8 v 8 h -8 z m 0 0"/><path fill="url(#c)" d="m 16 41 v 3 h 8 v -3 z m 88 0 v 3 h 8 v -3 z m -88 16 v 3 h 8 v -3 z m 88 0 v 3 h 8 v -3 z m -88 16 v 3 h 8 v -3 z m 88 0 v 3 h 8 v -3 z m -88 16 v 3 h 8 v -3 z m 88 0 v 3 h 8 v -3 z m -88 16 v 3 h 8 v -3 z m 88 0 v 3 h 8 v -3 z m -96 8 v 3 h 8 v -3 z m 16 0 v 3 h 80 v -3 z m 88 0 v 3 h 8 v -3 z m 0 0"/><g fill="#fff"><path d="m 52 68 h 24 v 16 h -24 z m 0 0"/><path d="m 64 102 l -22 -22 h 44 z m 0 0"/><path fill-opacity=".68" d="m 52 68 h 8 v -8 h -8 z m 0 0"/><path d="m 60 68 h 8 v -8 h -8 z m 0 0"/><path fill-opacity=".882" d="m 68 68 h 8 v -8 h -8 z m 0 0"/><path fill-opacity=".675" d="m 76 60 h -8 v -8 h 8 z m 0 0"/><path fill-opacity=".545" d="m 68 60 h -8 v -8 h 8 z m 0 0"/><path fill-opacity=".882" d="m 60 60 h -8 v -8 h 8 z m 0 0"/><path fill-opacity=".189" d="m 76 52 h -8 v -8 h 8 z m 0 0"/><path fill-opacity=".344" d="m 68 52 h -8 v -8 h 8 z m 0 0"/><path fill-opacity=".065" d="m 60 52 h -8 v -8 h 8 z m 0 0"/></g></svg>