<svg xmlns="http://www.w3.org/2000/svg" xmlns:svg="http://www.w3.org/2000/svg" xmlns:xlink="http://www.w3.org/1999/xlink" style="display:inline;enable-background:new" id="svg11300" width="192" height="152" version="1.0" viewBox="0 0 192 152"><title id="title4162">Adwaita Icon Template</title><defs id="defs3"><linearGradient id="linearGradient1524"><stop id="stop1520" offset="0" style="stop-color:#c64600;stop-opacity:1"/><stop id="stop1522" offset="1" style="stop-color:#a51d2d;stop-opacity:1"/></linearGradient><linearGradient id="linearGradient1518"><stop style="stop-color:#db202e;stop-opacity:1" id="stop1514" offset="0"/><stop style="stop-color:#e01b24;stop-opacity:1" id="stop1516" offset="1"/></linearGradient><linearGradient id="linearGradient1506"><stop style="stop-color:#ffb648;stop-opacity:1" id="stop1502" offset="0"/><stop style="stop-color:#ff7800;stop-opacity:0" id="stop1504" offset="1"/></linearGradient><radialGradient id="radialGradient1372" cx="261.688" cy="-1100.566" r="225" fx="261.688" fy="-1100.566" gradientTransform="matrix(0.27963724,0,0,0.19167088,14.08685,422.59065)" gradientUnits="userSpaceOnUse" xlink:href="#linearGradient1518"/><radialGradient id="radialGradient1374" cx="231.004" cy="-188.457" r="225" fx="231.004" fy="-188.457" gradientTransform="matrix(0.71179237,0.00758015,-0.00379303,0.35617357,-134.55067,344.10842)" gradientUnits="userSpaceOnUse" xlink:href="#linearGradient1506"/><radialGradient id="radialGradient1528" cx="18.456" cy="298.331" r="56" fx="18.456" fy="298.331" gradientTransform="matrix(1.6501632,0,0,1.10502,-11.999219,-47.132157)" gradientUnits="userSpaceOnUse" xlink:href="#linearGradient1524"/></defs><metadata id="metadata4"/><g style="display:inline" id="layer1" transform="translate(8,-156)"><g style="display:inline" id="layer4"><rect style="display:inline;overflow:visible;visibility:visible;fill:#f0f0f0;fill-opacity:0;fill-rule:nonzero;stroke:none;stroke-width:.5;marker:none;enable-background:accumulate" id="hicolor" width="128" height="128" x="0" y="172"/><rect id="symbolic" width="16" height="16" x="160" y="172" style="display:inline;overflow:visible;visibility:visible;fill:#f0f0f0;fill-opacity:0;fill-rule:nonzero;stroke:none;stroke-width:.5;marker:none;enable-background:accumulate"/></g><g style="display:inline" id="layer2"><rect id="128" width="128" height="128" x="0" y="172" style="display:inline;overflow:visible;visibility:visible;fill:#f0f0f0;fill-opacity:1;fill-rule:nonzero;stroke:none;stroke-width:.5;marker:none;enable-background:accumulate"/><rect style="display:inline;overflow:visible;visibility:visible;fill:#f0f0f0;fill-opacity:1;fill-rule:nonzero;stroke:none;stroke-width:.5;marker:none;enable-background:accumulate" id="16" width="16" height="16" x="160" y="172"/><text id="text863" x="0" y="167" xml:space="preserve" style="font-style:normal;font-variant:normal;font-weight:700;font-stretch:normal;font-size:4px;line-height:125%;font-family:Cantarell;-inkscape-font-specification:'Cantarell, Bold';text-align:start;writing-mode:lr-tb;text-anchor:start;display:inline;fill:#000;fill-opacity:1;stroke:none;stroke-width:.332649;enable-background:new"><tspan id="tspan861" x="0" y="167" style="font-size:4px;stroke-width:.332649">Hicolor</tspan></text><text style="font-style:normal;font-variant:normal;font-weight:700;font-stretch:normal;font-size:4px;line-height:125%;font-family:Cantarell;-inkscape-font-specification:'Cantarell, Bold';text-align:start;writing-mode:lr-tb;text-anchor:start;display:inline;fill:#000;fill-opacity:1;stroke:none;stroke-width:.332649;enable-background:new" id="text867" x="160" y="167" xml:space="preserve"><tspan style="font-size:4px;stroke-width:.332649" id="tspan865" x="160" y="167">Symbolic</tspan></text></g><g style="display:inline" id="layer9"><path id="path1345" d="m 8,200 v 88 h 8 v -8 h 8 v 8 h 80 v -8 h 8 v 8 h 8 v -88 h -8 v 8 h -8 v -8 H 24 v 8 h -8 v -8 z m 8,16 h 8 v 8 h -8 z m 88,0 h 8 v 8 h -8 z m -88,16 h 8 v 8 h -8 z m 88,0 h 8 v 8 h -8 z m -88,16 h 8 v 8 h -8 z m 88,0 h 8 v 8 h -8 z m -88,16 h 8 v 8 h -8 z m 88,0 h 8 v 8 h -8 z" style="display:inline;vector-effect:none;fill:url(#radialGradient1372);fill-opacity:1;stroke:none;stroke-width:.332066;stroke-linecap:butt;stroke-linejoin:bevel;stroke-miterlimit:4;stroke-dasharray:.332066,.66413199999999994;stroke-dashoffset:0;stroke-opacity:.948819;marker:none;marker-start:none;marker-mid:none;marker-end:none;paint-order:normal;enable-background:new"/><path id="path1347" d="m 8,200 v 88 h 8 v -8 h 8 v 8 h 80 v -8 h 8 v 8 h 8 v -88 h -8 v 8 h -8 v -8 H 24 v 8 h -8 v -8 z m 8,16 h 8 v 8 h -8 z m 88,0 h 8 v 8 h -8 z m -88,16 h 8 v 8 h -8 z m 88,0 h 8 v 8 h -8 z m -88,16 h 8 v 8 h -8 z m 88,0 h 8 v 8 h -8 z m -88,16 h 8 v 8 h -8 z m 88,0 h 8 v 8 h -8 z" style="display:inline;vector-effect:none;fill:url(#radialGradient1374);fill-opacity:1;stroke:none;stroke-width:.332066;stroke-linecap:butt;stroke-linejoin:bevel;stroke-miterlimit:4;stroke-dasharray:.332066,.66413199999999994;stroke-dashoffset:0;stroke-opacity:.948819;marker:none;marker-start:none;marker-mid:none;marker-end:none;paint-order:normal;enable-background:new"/><path id="path1368" d="m 16,213 v 3 h 8 v -3 z m 88,0 v 3 h 8 v -3 z m -88,16 v 3 h 8 v -3 z m 88,0 v 3 h 8 v -3 z m -88,16 v 3 h 8 v -3 z m 88,0 v 3 h 8 v -3 z m -88,16 v 3 h 8 v -3 z m 88,0 v 3 h 8 v -3 z m -88,16 v 3 h 8 v -3 z m 88,0 v 3 h 8 v -3 z m -96,8 v 3 h 8 v -3 z m 16,0 v 3 h 80 v -3 z m 88,0 v 3 h 8 v -3 z" style="display:inline;opacity:1;vector-effect:none;fill:url(#radialGradient1528);fill-opacity:1;stroke:none;stroke-width:.332066;stroke-linecap:butt;stroke-linejoin:bevel;stroke-miterlimit:4;stroke-dasharray:.332066,.66413199999999994;stroke-dashoffset:0;stroke-opacity:.948819;marker:none;marker-start:none;marker-mid:none;marker-end:none;paint-order:normal;enable-background:new"/><path id="rect1388" d="m 52,240 h 24 v 16 H 52 Z" style="fill:#fff;fill-opacity:1;stroke-width:.918559;stroke-linecap:round;stroke-linejoin:round"/><path id="path1390" d="M 64,274 42,252 h 44 z" style="fill:#fff;fill-opacity:1;stroke:none;stroke-width:.818726px;stroke-linecap:butt;stroke-linejoin:miter;stroke-opacity:1"/><path style="fill:#fff;fill-opacity:.68004835;stroke-width:.375;stroke-linecap:round;stroke-linejoin:round" id="path1069" d="m 52,240 h 8 v -8 h -8 z"/><path id="path1071" d="m 60,240 h 8 v -8 h -8 z" style="fill:#fff;fill-opacity:1;stroke-width:.375;stroke-linecap:round;stroke-linejoin:round"/><path style="fill:#fff;fill-opacity:.88155746;stroke-width:.375;stroke-linecap:round;stroke-linejoin:round" id="path1073" d="m 68,240 h 8 v -8 h -8 z"/><path id="path1075" d="m 76,232 h -8 v -8 h 8 z" style="fill:#fff;fill-opacity:.67512238;stroke-width:.375;stroke-linecap:round;stroke-linejoin:round"/><path style="fill:#fff;fill-opacity:.54492974;stroke-width:.375;stroke-linecap:round;stroke-linejoin:round" id="path1077" d="m 68,232 h -8 v -8 h 8 z"/><path id="path1079" d="m 60,232 h -8 v -8 h 8 z" style="fill:#fff;fill-opacity:.881557;stroke-width:.375;stroke-linecap:round;stroke-linejoin:round"/><path style="fill:#fff;fill-opacity:.18911582;stroke-width:.375;stroke-linecap:round;stroke-linejoin:round" id="path1081" d="m 76,224 h -8 v -8 h 8 z"/><path id="path1083" d="m 68,224 h -8 v -8 h 8 z" style="fill:#fff;fill-opacity:.34378138;stroke-width:.375;stroke-linecap:round;stroke-linejoin:round"/><path style="fill:#fff;fill-opacity:.06532379;stroke-width:.375;stroke-linecap:round;stroke-linejoin:round" id="path1085" d="m 60,224 h -8 v -8 h 8 z"/><path style="display:inline;fill:#241f31;fill-opacity:1;stroke-width:.22964;stroke-linecap:round;stroke-linejoin:round;enable-background:new" id="rect1388-3" d="m 165,181 h 6 v 2 h -6 z"/><path style="display:inline;fill:#241f31;fill-opacity:1;stroke:none;stroke-width:.204682px;stroke-linecap:butt;stroke-linejoin:miter;stroke-opacity:1;enable-background:new" id="path1390-6" d="m 168,187 -6,-5 h 12 z"/><g id="g1183" transform="matrix(1.1250007,0,0,1.1250007,-21.000113,-22.250125)"><path style="display:inline;fill:#241f31;fill-opacity:.680048;stroke-width:.125;stroke-linecap:round;stroke-linejoin:round;enable-background:new" id="path1069-7" d="M 165.33333,180.66667 H 168 V 178 h -2.66667 z"/><path id="path1071-5" d="m 168,180.66667 h 2.66666 V 178 H 168 Z" style="display:inline;fill:#241f31;fill-opacity:1;stroke-width:.125;stroke-linecap:round;stroke-linejoin:round;enable-background:new"/><path style="display:inline;fill:#241f31;fill-opacity:.54493;stroke-width:.125;stroke-linecap:round;stroke-linejoin:round;enable-background:new" id="path1077-6" d="M 170.66666,178 H 168 v -2.66666 h 2.66666 z"/><path id="path1079-2" d="m 168,178 h -2.66667 v -2.66666 H 168 Z" style="display:inline;fill:#241f31;fill-opacity:.79000384;stroke-width:.125;stroke-linecap:round;stroke-linejoin:round;enable-background:new"/><path id="path1083-1" d="M 170.66666,175.33334 H 168 v -2.66667 h 2.66666 z" style="display:inline;fill:#241f31;fill-opacity:.32194406;stroke-width:.125;stroke-linecap:round;stroke-linejoin:round;enable-background:new"/><path style="display:inline;fill:#241f31;fill-opacity:.17377321;stroke-width:.125;stroke-linecap:round;stroke-linejoin:round;enable-background:new" id="path1085-2" d="m 168,175.33334 h -2.66667 v -2.66667 H 168 Z"/></g><g style="fill:#241f31" id="g1167" transform="matrix(0.25,0,0,0.25,176.41154,134.29809)"><path style="display:inline;fill:#241f31;fill-opacity:1;stroke-width:.918559;stroke-linecap:round;stroke-linejoin:round;enable-background:new" id="path1145" d="m 154.35386,178.80763 h 24 v 16 h -24 z"/><path style="display:inline;fill:#241f31;fill-opacity:1;stroke:none;stroke-width:.818726px;stroke-linecap:butt;stroke-linejoin:miter;stroke-opacity:1;enable-background:new" id="path1147" d="m 166.35384,210.80764 -24,-20 h 48 z"/><path id="path1149" d="m 154.35386,178.80763 h 8 v -8 h -8 z" style="display:inline;fill:#241f31;fill-opacity:.680048;stroke-width:.375;stroke-linecap:round;stroke-linejoin:round;enable-background:new"/><path style="display:inline;fill:#241f31;fill-opacity:1;stroke-width:.375;stroke-linecap:round;stroke-linejoin:round;enable-background:new" id="path1151" d="m 162.35386,178.80763 h 8 v -8 h -8 z"/><path id="path1153" d="m 170.35386,178.80763 h 8 v -8 h -8 z" style="display:inline;fill:#241f31;fill-opacity:.881557;stroke-width:.375;stroke-linecap:round;stroke-linejoin:round;enable-background:new"/><path style="display:inline;fill:#241f31;fill-opacity:.675122;stroke-width:.375;stroke-linecap:round;stroke-linejoin:round;enable-background:new" id="path1155" d="m 178.35386,170.80763 h -8 v -8 h 8 z"/><path id="path1157" d="m 170.35386,170.80763 h -8 v -8 h 8 z" style="display:inline;fill:#241f31;fill-opacity:.54493;stroke-width:.375;stroke-linecap:round;stroke-linejoin:round;enable-background:new"/><path style="display:inline;fill:#241f31;fill-opacity:.881557;stroke-width:.375;stroke-linecap:round;stroke-linejoin:round;enable-background:new" id="path1159" d="m 162.35386,170.80763 h -8 v -8 h 8 z"/><path id="path1161" d="m 178.35386,162.80763 h -8 v -8 h 8 z" style="display:inline;fill:#241f31;fill-opacity:.189116;stroke-width:.375;stroke-linecap:round;stroke-linejoin:round;enable-background:new"/><path style="display:inline;fill:#241f31;fill-opacity:.343781;stroke-width:.375;stroke-linecap:round;stroke-linejoin:round;enable-background:new" id="path1163" d="m 170.35386,162.80763 h -8 v -8 h 8 z"/><path id="path1165" d="m 162.35386,162.80763 h -8 v -8 h 8 z" style="display:inline;fill:#241f31;fill-opacity:.0653238;stroke-width:.375;stroke-linecap:round;stroke-linejoin:round;enable-background:new"/></g></g><g style="display:none" id="layer3"><circle style="display:inline;opacity:.1;vector-effect:none;fill:none;fill-opacity:1;stroke:#000;stroke-width:.99;stroke-linecap:butt;stroke-linejoin:miter;stroke-miterlimit:4;stroke-dasharray:.99,.99;stroke-dashoffset:0;stroke-opacity:1;marker:none;marker-start:none;marker-mid:none;marker-end:none;paint-order:normal;enable-background:new" id="circle2892" cx="64" cy="236" r="59.504"/><rect style="display:inline;opacity:.1;vector-effect:none;fill:none;fill-opacity:1;stroke:#000;stroke-width:.99;stroke-linecap:butt;stroke-linejoin:miter;stroke-miterlimit:4;stroke-dasharray:.99,.99;stroke-dashoffset:0;stroke-opacity:1;marker:none;marker-start:none;marker-mid:none;marker-end:none;paint-order:normal;enable-background:new" id="rect2894" width="87.01" height="111.01" x="20.495" y="180.495" rx="8.701" ry="7.929"/><rect style="display:inline;opacity:.1;vector-effect:none;fill:none;fill-opacity:1;stroke:#000;stroke-width:.99;stroke-linecap:butt;stroke-linejoin:miter;stroke-miterlimit:4;stroke-dasharray:.99,.99;stroke-dashoffset:0;stroke-opacity:1;marker:none;marker-start:none;marker-mid:none;marker-end:none;paint-order:normal;enable-background:new" id="rect2896" width="103.01" height="103.01" x="12.495" y="184.495" rx="7.924" ry="7.924"/><rect style="display:inline;opacity:.1;vector-effect:none;fill:none;fill-opacity:1;stroke:#000;stroke-width:.99;stroke-linecap:butt;stroke-linejoin:miter;stroke-miterlimit:4;stroke-dasharray:.99,.99;stroke-dashoffset:0;stroke-opacity:1;marker:none;marker-start:none;marker-mid:none;marker-end:none;paint-order:normal;enable-background:new" id="rect2898" width="111.01" height="87.01" x="8.495" y="200.495" rx="7.929" ry="8.701"/><path style="display:inline;fill:none;stroke:#62a0ea;stroke-width:2;stroke-linecap:butt;stroke-linejoin:miter;stroke-miterlimit:4;stroke-dasharray:none;stroke-opacity:1;enable-background:new" id="path2900" d="M 2.6203015e-5,288.99999 H 128.00003"/></g></g></svg>